<svg width="441" height="163" viewBox="0 0 441 163" fill="none" xmlns="http://www.w3.org/2000/svg">
<path d="M62.9693 140V95.264L45.4973 128.576H38.1053L20.6333 95.264V140H7.38525V71.84H21.5933L41.7533 110.624L62.1053 71.84H76.2173V140H62.9693ZM111.684 140.96C107.652 140.96 104.004 140.288 100.74 138.944C97.476 137.536 94.692 135.648 92.388 133.28C90.084 130.848 88.292 128.096 87.012 125.024C85.796 121.888 85.188 118.592 85.188 115.136C85.188 110.336 86.244 105.952 88.356 101.984C90.532 98.016 93.604 94.848 97.572 92.48C101.604 90.048 106.34 88.832 111.78 88.832C117.284 88.832 121.988 90.048 125.892 92.48C129.796 94.848 132.772 98.016 134.82 101.984C136.932 105.888 137.988 110.112 137.988 114.656C137.988 115.424 137.956 116.224 137.892 117.056C137.828 117.824 137.764 118.464 137.7 118.976H98.82C99.076 121.536 99.812 123.776 101.028 125.696C102.308 127.616 103.908 129.088 105.828 130.112C107.812 131.072 109.924 131.552 112.164 131.552C114.724 131.552 117.124 130.944 119.364 129.728C121.668 128.448 123.236 126.784 124.068 124.736L135.108 127.808C133.892 130.368 132.132 132.64 129.828 134.624C127.588 136.608 124.932 138.176 121.86 139.328C118.788 140.416 115.396 140.96 111.684 140.96ZM98.532 110.816H124.836C124.58 108.256 123.844 106.048 122.628 104.192C121.476 102.272 119.94 100.8 118.02 99.776C116.1 98.688 113.956 98.144 111.588 98.144C109.284 98.144 107.172 98.688 105.252 99.776C103.396 100.8 101.86 102.272 100.644 104.192C99.492 106.048 98.788 108.256 98.532 110.816ZM145.729 69.92H158.593V123.872C158.593 126.176 158.977 127.744 159.745 128.576C160.513 129.344 161.569 129.728 162.913 129.728C163.937 129.728 164.993 129.6 166.081 129.344C167.169 129.088 168.129 128.768 168.961 128.384L170.689 138.176C168.961 139.008 166.945 139.648 164.641 140.096C162.337 140.544 160.257 140.768 158.401 140.768C154.369 140.768 151.233 139.712 148.993 137.6C146.817 135.424 145.729 132.352 145.729 128.384V69.92ZM199.526 140.96C195.43 140.96 191.75 140.288 188.486 138.944C185.222 137.536 182.438 135.616 180.134 133.184C177.894 130.752 176.166 127.968 174.95 124.832C173.734 121.696 173.126 118.4 173.126 114.944C173.126 111.424 173.734 108.096 174.95 104.96C176.166 101.824 177.894 99.04 180.134 96.608C182.438 94.176 185.222 92.288 188.486 90.944C191.75 89.536 195.43 88.832 199.526 88.832C203.622 88.832 207.27 89.536 210.47 90.944C213.734 92.288 216.518 94.176 218.822 96.608C221.126 99.04 222.854 101.824 224.006 104.96C225.222 108.096 225.83 111.424 225.83 114.944C225.83 118.4 225.222 121.696 224.006 124.832C222.854 127.968 221.126 130.752 218.822 133.184C216.582 135.616 213.83 137.536 210.566 138.944C207.302 140.288 203.622 140.96 199.526 140.96ZM186.374 114.944C186.374 117.888 186.95 120.512 188.102 122.816C189.254 125.056 190.822 126.816 192.806 128.096C194.79 129.376 197.03 130.016 199.526 130.016C201.958 130.016 204.166 129.376 206.15 128.096C208.134 126.752 209.702 124.96 210.854 122.72C212.07 120.416 212.678 117.792 212.678 114.848C212.678 111.968 212.07 109.376 210.854 107.072C209.702 104.768 208.134 102.976 206.15 101.696C204.166 100.416 201.958 99.776 199.526 99.776C197.03 99.776 194.79 100.448 192.806 101.792C190.822 103.072 189.254 104.864 188.102 107.168C186.95 109.408 186.374 112 186.374 114.944ZM231.44 114.848C231.44 109.984 232.4 105.6 234.32 101.696C236.24 97.728 238.896 94.592 242.288 92.288C245.68 89.984 249.552 88.832 253.904 88.832C257.616 88.832 260.944 89.76 263.888 91.616C266.896 93.408 269.232 95.712 270.896 98.528V69.92H283.76V125.6C283.76 126.944 283.984 127.904 284.432 128.48C284.88 129.056 285.648 129.408 286.736 129.536V140C284.496 140.448 282.672 140.672 281.264 140.672C278.96 140.672 277.04 140.096 275.504 138.944C274.032 137.792 273.2 136.288 273.008 134.432L272.816 131.264C270.96 134.4 268.432 136.8 265.232 138.464C262.096 140.128 258.8 140.96 255.344 140.96C251.888 140.96 248.688 140.288 245.744 138.944C242.864 137.6 240.336 135.744 238.16 133.376C236.048 131.008 234.384 128.256 233.168 125.12C232.016 121.92 231.44 118.496 231.44 114.848ZM270.896 121.568V109.568C270.256 107.712 269.232 106.048 267.824 104.576C266.416 103.104 264.848 101.952 263.12 101.12C261.392 100.224 259.664 99.776 257.936 99.776C255.952 99.776 254.16 100.192 252.56 101.024C250.96 101.856 249.552 102.976 248.336 104.384C247.184 105.792 246.288 107.424 245.648 109.28C245.072 111.136 244.784 113.088 244.784 115.136C244.784 117.184 245.104 119.136 245.744 120.992C246.448 122.784 247.44 124.352 248.72 125.696C250 127.04 251.472 128.096 253.136 128.864C254.864 129.632 256.72 130.016 258.704 130.016C259.92 130.016 261.136 129.824 262.352 129.44C263.632 128.992 264.816 128.416 265.904 127.712C267.056 126.944 268.048 126.048 268.88 125.024C269.776 123.936 270.448 122.784 270.896 121.568Z" fill="black"/>
<path d="M297.635 140V71.84H310.883V140H297.635Z" fill="#B66EFF"/>
<path d="M384 107.5V54.5M384 54.5L431.728 42.5681C433.063 42.2342 434 41.0343 434 39.6577V10.8423C434 8.89062 432.166 7.45854 430.272 7.9319L386.272 18.9319C384.937 19.2658 384 20.4657 384 21.8423V54.5Z" stroke="#B66EFF" stroke-width="14"/>
<circle cx="356" cy="107.5" r="28" stroke="#B66EFF" stroke-width="14"/>
</svg>
